<mxfile host="app.diagrams.net" agent="Mozilla/5.0 (X11; Ubuntu; Linux x86_64; rv:133.0) Gecko/20100101 Firefox/133.0" version="24.8.3">
  <diagram name="Page-1" id="1jeLxI2OCfeSWo5d0hNq">
    <mxGraphModel dx="1413" dy="1758" grid="1" gridSize="11" guides="1" tooltips="1" connect="1" arrows="1" fold="1" page="0" pageScale="1" pageWidth="850" pageHeight="1100" math="0" shadow="0">
      <root>
        <mxCell id="0" />
        <mxCell id="1" parent="0" />
        <mxCell id="_-TTu0KQnb45jtgWuE68-1" value="&lt;font style=&quot;font-size: 12px;&quot;&gt;Literature Review&lt;/font&gt;" style="text;html=1;align=center;verticalAlign=middle;resizable=0;points=[];autosize=1;strokeColor=none;fillColor=none;" parent="1" vertex="1">
          <mxGeometry x="132" y="272" width="121" height="33" as="geometry" />
        </mxCell>
        <mxCell id="_-TTu0KQnb45jtgWuE68-2" value="&lt;div&gt;Architecture Selection&lt;/div&gt;&lt;div&gt;&lt;br&gt;&lt;/div&gt;" style="text;html=1;align=center;verticalAlign=middle;resizable=0;points=[];autosize=1;strokeColor=none;fillColor=none;" parent="1" vertex="1">
          <mxGeometry x="374" y="192" width="143" height="44" as="geometry" />
        </mxCell>
        <mxCell id="_-TTu0KQnb45jtgWuE68-3" value="&lt;div&gt;Dataset Selection /&lt;/div&gt;&lt;div&gt;Feature Selection&lt;br&gt;&lt;/div&gt;" style="text;html=1;align=center;verticalAlign=middle;resizable=0;points=[];autosize=1;strokeColor=none;fillColor=none;" parent="1" vertex="1">
          <mxGeometry x="649" y="269.5" width="121" height="44" as="geometry" />
        </mxCell>
        <mxCell id="_-TTu0KQnb45jtgWuE68-4" value="Benchmarking" style="text;html=1;align=center;verticalAlign=middle;resizable=0;points=[];autosize=1;strokeColor=none;fillColor=none;" parent="1" vertex="1">
          <mxGeometry x="945" y="271" width="99" height="33" as="geometry" />
        </mxCell>
        <mxCell id="_-TTu0KQnb45jtgWuE68-6" value="Initial Code + Experimentation" style="text;html=1;align=center;verticalAlign=middle;resizable=0;points=[];autosize=1;strokeColor=none;fillColor=none;" parent="1" vertex="1">
          <mxGeometry x="1210" y="271.5" width="187" height="33" as="geometry" />
        </mxCell>
        <mxCell id="_-TTu0KQnb45jtgWuE68-7" value="Model Evaluation + Tuning" style="text;html=1;align=center;verticalAlign=middle;resizable=0;points=[];autosize=1;strokeColor=none;fillColor=none;" parent="1" vertex="1">
          <mxGeometry x="1228" y="445" width="165" height="33" as="geometry" />
        </mxCell>
        <mxCell id="_-TTu0KQnb45jtgWuE68-8" value="Results + Drawing Inferences/conclusiions" style="text;html=1;align=center;verticalAlign=middle;resizable=0;points=[];autosize=1;strokeColor=none;fillColor=none;" parent="1" vertex="1">
          <mxGeometry x="1184" y="566" width="253" height="33" as="geometry" />
        </mxCell>
        <mxCell id="_-TTu0KQnb45jtgWuE68-9" value="Paper Writing" style="text;html=1;align=center;verticalAlign=middle;resizable=0;points=[];autosize=1;strokeColor=none;fillColor=none;" parent="1" vertex="1">
          <mxGeometry x="802.5" y="566" width="99" height="33" as="geometry" />
        </mxCell>
        <mxCell id="_-TTu0KQnb45jtgWuE68-10" value="" style="rounded=1;whiteSpace=wrap;html=1;fillColor=none;" parent="1" vertex="1">
          <mxGeometry x="133" y="258.5" width="120" height="60" as="geometry" />
        </mxCell>
        <mxCell id="_-TTu0KQnb45jtgWuE68-11" value="" style="rounded=1;whiteSpace=wrap;html=1;fillColor=none;" parent="1" vertex="1">
          <mxGeometry x="385.5" y="176" width="120" height="60" as="geometry" />
        </mxCell>
        <mxCell id="m3b22_OhLMWhYGsPR_bi-3" style="edgeStyle=orthogonalEdgeStyle;rounded=0;orthogonalLoop=1;jettySize=auto;html=1;entryX=0;entryY=0.5;entryDx=0;entryDy=0;" edge="1" parent="1" source="_-TTu0KQnb45jtgWuE68-12" target="m3b22_OhLMWhYGsPR_bi-2">
          <mxGeometry relative="1" as="geometry" />
        </mxCell>
        <mxCell id="m3b22_OhLMWhYGsPR_bi-4" style="edgeStyle=orthogonalEdgeStyle;rounded=0;orthogonalLoop=1;jettySize=auto;html=1;entryX=0;entryY=0.5;entryDx=0;entryDy=0;" edge="1" parent="1" source="_-TTu0KQnb45jtgWuE68-12" target="_-TTu0KQnb45jtgWuE68-13">
          <mxGeometry relative="1" as="geometry" />
        </mxCell>
        <mxCell id="_-TTu0KQnb45jtgWuE68-12" value="" style="rounded=1;whiteSpace=wrap;html=1;fillColor=none;" parent="1" vertex="1">
          <mxGeometry x="650" y="258.5" width="120" height="60" as="geometry" />
        </mxCell>
        <mxCell id="m3b22_OhLMWhYGsPR_bi-5" style="edgeStyle=orthogonalEdgeStyle;rounded=0;orthogonalLoop=1;jettySize=auto;html=1;" edge="1" parent="1" target="_-TTu0KQnb45jtgWuE68-14">
          <mxGeometry relative="1" as="geometry">
            <mxPoint x="1166" y="288.5" as="sourcePoint" />
          </mxGeometry>
        </mxCell>
        <mxCell id="m3b22_OhLMWhYGsPR_bi-9" style="edgeStyle=orthogonalEdgeStyle;rounded=0;orthogonalLoop=1;jettySize=auto;html=1;entryX=0;entryY=0.5;entryDx=0;entryDy=0;" edge="1" parent="1" source="_-TTu0KQnb45jtgWuE68-13" target="_-TTu0KQnb45jtgWuE68-14">
          <mxGeometry relative="1" as="geometry" />
        </mxCell>
        <mxCell id="_-TTu0KQnb45jtgWuE68-13" value="" style="rounded=1;whiteSpace=wrap;html=1;fillColor=none;" parent="1" vertex="1">
          <mxGeometry x="935" y="258" width="120" height="60" as="geometry" />
        </mxCell>
        <mxCell id="_-TTu0KQnb45jtgWuE68-14" value="" style="rounded=1;whiteSpace=wrap;html=1;fillColor=none;" parent="1" vertex="1">
          <mxGeometry x="1217.5" y="258.5" width="172" height="60" as="geometry" />
        </mxCell>
        <mxCell id="m3b22_OhLMWhYGsPR_bi-7" style="edgeStyle=orthogonalEdgeStyle;rounded=0;orthogonalLoop=1;jettySize=auto;html=1;entryX=0.5;entryY=0;entryDx=0;entryDy=0;" edge="1" parent="1" source="_-TTu0KQnb45jtgWuE68-15" target="_-TTu0KQnb45jtgWuE68-16">
          <mxGeometry relative="1" as="geometry" />
        </mxCell>
        <mxCell id="_-TTu0KQnb45jtgWuE68-15" value="" style="rounded=1;whiteSpace=wrap;html=1;fillColor=none;" parent="1" vertex="1">
          <mxGeometry x="1233.75" y="418" width="153.5" height="60" as="geometry" />
        </mxCell>
        <mxCell id="m3b22_OhLMWhYGsPR_bi-8" style="edgeStyle=orthogonalEdgeStyle;rounded=0;orthogonalLoop=1;jettySize=auto;html=1;" edge="1" parent="1" source="_-TTu0KQnb45jtgWuE68-16" target="_-TTu0KQnb45jtgWuE68-17">
          <mxGeometry relative="1" as="geometry" />
        </mxCell>
        <mxCell id="_-TTu0KQnb45jtgWuE68-16" value="" style="rounded=1;whiteSpace=wrap;html=1;fillColor=none;" parent="1" vertex="1">
          <mxGeometry x="1180.5" y="552.5" width="260" height="60" as="geometry" />
        </mxCell>
        <mxCell id="_-TTu0KQnb45jtgWuE68-17" value="" style="rounded=1;whiteSpace=wrap;html=1;fillColor=none;" parent="1" vertex="1">
          <mxGeometry x="792" y="552.5" width="120" height="60" as="geometry" />
        </mxCell>
        <mxCell id="_-TTu0KQnb45jtgWuE68-19" value="Fuzzy Based RF Approach" style="text;html=1;align=center;verticalAlign=middle;resizable=0;points=[];autosize=1;strokeColor=none;fillColor=none;" parent="1" vertex="1">
          <mxGeometry x="362" y="77" width="165" height="33" as="geometry" />
        </mxCell>
        <mxCell id="_-TTu0KQnb45jtgWuE68-20" value="Attention Based RNN" style="text;html=1;align=center;verticalAlign=middle;resizable=0;points=[];autosize=1;strokeColor=none;fillColor=none;" parent="1" vertex="1">
          <mxGeometry x="232" y="121" width="143" height="33" as="geometry" />
        </mxCell>
        <mxCell id="_-TTu0KQnb45jtgWuE68-21" value="GAN Based Approach" style="text;html=1;align=center;verticalAlign=middle;resizable=0;points=[];autosize=1;strokeColor=none;fillColor=none;" parent="1" vertex="1">
          <mxGeometry x="516" y="121" width="143" height="33" as="geometry" />
        </mxCell>
        <mxCell id="_-TTu0KQnb45jtgWuE68-33" style="edgeStyle=orthogonalEdgeStyle;rounded=0;orthogonalLoop=1;jettySize=auto;html=1;exitX=0.5;exitY=0;exitDx=0;exitDy=0;entryX=0.5;entryY=1;entryDx=0;entryDy=0;" parent="1" source="_-TTu0KQnb45jtgWuE68-22" target="_-TTu0KQnb45jtgWuE68-23" edge="1">
          <mxGeometry relative="1" as="geometry" />
        </mxCell>
        <mxCell id="_-TTu0KQnb45jtgWuE68-22" value="&lt;h3&gt;&lt;strong&gt;Identify Relevant Symptoms and Data Sources&lt;/strong&gt;&lt;/h3&gt;&lt;p&gt;We start by considering clinical symptoms, laboratory results, immunological markers, genetic data, and demographic features. For fuzzy logic integration, you&#39;ll want to treat symptoms and biomarkers as &lt;strong&gt;fuzzy variables&lt;/strong&gt;. For instance, the presence of fatigue could be treated as a &quot;fuzzy&quot; variable, ranging from low (no fatigue) to high (severe fatigue).&lt;/p&gt;" style="text;html=1;whiteSpace=wrap;overflow=hidden;rounded=0;fillColor=#ffe6cc;strokeColor=#d79b00;" parent="1" vertex="1">
          <mxGeometry x="170.25" y="-253" width="231.25" height="220" as="geometry" />
        </mxCell>
        <mxCell id="_-TTu0KQnb45jtgWuE68-34" style="edgeStyle=orthogonalEdgeStyle;rounded=0;orthogonalLoop=1;jettySize=auto;html=1;entryX=0;entryY=0.5;entryDx=0;entryDy=0;" parent="1" source="_-TTu0KQnb45jtgWuE68-23" target="_-TTu0KQnb45jtgWuE68-24" edge="1">
          <mxGeometry relative="1" as="geometry" />
        </mxCell>
        <mxCell id="_-TTu0KQnb45jtgWuE68-23" value="&lt;h3&gt;&lt;strong&gt;Define Fuzzy Sets and Membership Functions&lt;/strong&gt;&lt;/h3&gt;&lt;p&gt;&lt;/p&gt;&lt;p&gt;For each symptom, create &lt;strong&gt;fuzzy sets&lt;/strong&gt;. These sets represent how the symptom is categorized based on its intensity or frequency. For example, the fuzzy set for &lt;strong&gt;fatigue&lt;/strong&gt; might look like this:&lt;/p&gt;&lt;ul&gt;&lt;li&gt;&lt;strong&gt;Low Fatigue&lt;/strong&gt;: 0 (no fatigue) to 0.4 (slightly fatigued)&lt;/li&gt;&lt;li&gt;&lt;strong&gt;Moderate Fatigue&lt;/strong&gt;: 0.3 to 0.7 (medium level of fatigue)&lt;/li&gt;&lt;li&gt;&lt;strong&gt;High Fatigue&lt;/strong&gt;: 0.6 to 1 (severe fatigue)&lt;/li&gt;&lt;/ul&gt;&lt;p&gt;Membership functions define how degrees of truth are assigned to each fuzzy variable. You could use &lt;strong&gt;triangular&lt;/strong&gt;, &lt;strong&gt;trapezoidal&lt;/strong&gt;, or &lt;strong&gt;Gaussian&lt;/strong&gt; membership functions, depending on the data distribution.&lt;/p&gt;" style="text;html=1;whiteSpace=wrap;overflow=hidden;rounded=0;fillColor=#f5f5f5;fontColor=#333333;strokeColor=#666666;" parent="1" vertex="1">
          <mxGeometry x="168.63" y="-605" width="234.5" height="297" as="geometry" />
        </mxCell>
        <mxCell id="_-TTu0KQnb45jtgWuE68-24" value="&lt;h3&gt; &lt;strong&gt;Fuzzy Logic Integration into RF&lt;/strong&gt;&lt;/h3&gt;&lt;p&gt;In this step, you modify the standard RF model to integrate fuzzy logic. One way to do this is through &lt;strong&gt;fuzzy decision trees&lt;/strong&gt; and then using &lt;strong&gt;fuzzy random forests&lt;/strong&gt;. Fuzzy decision trees work by using fuzzy membership functions for decision splits, while RF models aggregate decisions across many trees.&lt;/p&gt;&lt;p&gt;&lt;strong&gt;Steps&lt;/strong&gt;:&lt;/p&gt;&lt;ol&gt;&lt;li&gt;&lt;strong&gt;Preprocessing&lt;/strong&gt;: Convert raw symptoms into fuzzy variables.&lt;/li&gt;&lt;li&gt;&lt;strong&gt;Decision Tree Modifications&lt;/strong&gt;: Modify decision trees so that splits can occur based on fuzzy membership values, not just crisp thresholds.&lt;/li&gt;&lt;li&gt;&lt;strong&gt;Ensemble Process&lt;/strong&gt;: Train multiple fuzzy decision trees as part of the RF ensemble. Each tree works with fuzzy inputs and outputs. The final classification will be a consensus of fuzzy outputs from all trees.&lt;/li&gt;&lt;/ol&gt;&lt;ul&gt;&lt;li&gt;In &lt;strong&gt;fuzzy decision trees&lt;/strong&gt;, each node represents a decision rule based on the fuzzy values, not crisp ones.&lt;/li&gt;&lt;li&gt;Each tree is trained as usual, but the splits at each node are made using &lt;strong&gt;fuzzy thresholds&lt;/strong&gt; rather than binary thresholds.&lt;/li&gt;&lt;li&gt;The prediction from each tree is a &lt;strong&gt;fuzzy output&lt;/strong&gt;, which could represent the likelihood or degree of SLE.&lt;/li&gt;&lt;/ul&gt;" style="text;html=1;whiteSpace=wrap;overflow=hidden;rounded=0;fillColor=#dae8fc;strokeColor=#6c8ebf;" parent="1" vertex="1">
          <mxGeometry x="505.5" y="-594" width="286.5" height="528" as="geometry" />
        </mxCell>
        <mxCell id="_-TTu0KQnb45jtgWuE68-26" style="edgeStyle=orthogonalEdgeStyle;rounded=0;orthogonalLoop=1;jettySize=auto;html=1;exitX=1;exitY=0.5;exitDx=0;exitDy=0;entryX=0.005;entryY=0.398;entryDx=0;entryDy=0;entryPerimeter=0;" parent="1" source="_-TTu0KQnb45jtgWuE68-10" target="_-TTu0KQnb45jtgWuE68-2" edge="1">
          <mxGeometry relative="1" as="geometry" />
        </mxCell>
        <mxCell id="_-TTu0KQnb45jtgWuE68-28" style="edgeStyle=orthogonalEdgeStyle;rounded=0;orthogonalLoop=1;jettySize=auto;html=1;exitX=0;exitY=0;exitDx=0;exitDy=0;entryX=0.998;entryY=0.712;entryDx=0;entryDy=0;entryPerimeter=0;" parent="1" source="_-TTu0KQnb45jtgWuE68-11" target="_-TTu0KQnb45jtgWuE68-20" edge="1">
          <mxGeometry relative="1" as="geometry" />
        </mxCell>
        <mxCell id="_-TTu0KQnb45jtgWuE68-29" style="edgeStyle=orthogonalEdgeStyle;rounded=0;orthogonalLoop=1;jettySize=auto;html=1;exitX=0.5;exitY=0;exitDx=0;exitDy=0;entryX=0.502;entryY=1.098;entryDx=0;entryDy=0;entryPerimeter=0;" parent="1" source="_-TTu0KQnb45jtgWuE68-11" target="_-TTu0KQnb45jtgWuE68-19" edge="1">
          <mxGeometry relative="1" as="geometry" />
        </mxCell>
        <mxCell id="_-TTu0KQnb45jtgWuE68-30" style="edgeStyle=orthogonalEdgeStyle;rounded=0;orthogonalLoop=1;jettySize=auto;html=1;exitX=1;exitY=0;exitDx=0;exitDy=0;entryX=0.052;entryY=1.053;entryDx=0;entryDy=0;entryPerimeter=0;" parent="1" source="_-TTu0KQnb45jtgWuE68-11" target="_-TTu0KQnb45jtgWuE68-21" edge="1">
          <mxGeometry relative="1" as="geometry" />
        </mxCell>
        <mxCell id="_-TTu0KQnb45jtgWuE68-31" style="edgeStyle=orthogonalEdgeStyle;rounded=0;orthogonalLoop=1;jettySize=auto;html=1;entryX=0.444;entryY=1.019;entryDx=0;entryDy=0;entryPerimeter=0;" parent="1" source="_-TTu0KQnb45jtgWuE68-19" target="_-TTu0KQnb45jtgWuE68-22" edge="1">
          <mxGeometry relative="1" as="geometry" />
        </mxCell>
        <mxCell id="_-TTu0KQnb45jtgWuE68-35" style="edgeStyle=orthogonalEdgeStyle;rounded=0;orthogonalLoop=1;jettySize=auto;html=1;entryX=0.006;entryY=0.313;entryDx=0;entryDy=0;entryPerimeter=0;" parent="1" source="_-TTu0KQnb45jtgWuE68-11" target="_-TTu0KQnb45jtgWuE68-3" edge="1">
          <mxGeometry relative="1" as="geometry" />
        </mxCell>
        <mxCell id="m3b22_OhLMWhYGsPR_bi-2" value="&lt;h3&gt;&lt;strong&gt;Feature Selection Process&lt;/strong&gt;&lt;/h3&gt;&lt;p&gt;Feature selection is crucial for improving the efficiency and performance of the RF model. In the context of fuzzy logic-based RF, the feature selection process would involve identifying the most &lt;strong&gt;informative fuzzy variables&lt;/strong&gt; (symptoms, biomarkers, etc.).&lt;/p&gt;&lt;p&gt;&lt;strong&gt;Steps for Feature Selection&lt;/strong&gt;:&lt;/p&gt;&lt;ul&gt;&lt;li&gt;&lt;strong&gt;Correlation Analysis&lt;/strong&gt;: Analyze the relationship between features (fuzzy variables) and the target variable (SLE diagnosis). &lt;br&gt;&lt;/li&gt;&lt;li&gt;&lt;strong&gt;Fuzzy Entropy&lt;/strong&gt;: This method measures the uncertainty or disorder within fuzzy sets. Fuzzy features that have high entropy may be less informative and could be excluded from the model.&lt;/li&gt;&lt;li&gt;&lt;strong&gt;Importance Ranking&lt;/strong&gt;: Use Random Forest&#39;s built-in feature importance measure (e.g., Gini importance) to assess which fuzzy features contribute the most to model accuracy.&lt;/li&gt;&lt;/ul&gt;" style="text;html=1;whiteSpace=wrap;overflow=hidden;rounded=0;fillColor=#d5e8d4;strokeColor=#82b366;" vertex="1" parent="1">
          <mxGeometry x="825" y="-182" width="330" height="347" as="geometry" />
        </mxCell>
        <mxCell id="m3b22_OhLMWhYGsPR_bi-6" style="edgeStyle=orthogonalEdgeStyle;rounded=0;orthogonalLoop=1;jettySize=auto;html=1;entryX=0.454;entryY=0.183;entryDx=0;entryDy=0;entryPerimeter=0;" edge="1" parent="1" source="_-TTu0KQnb45jtgWuE68-14" target="_-TTu0KQnb45jtgWuE68-15">
          <mxGeometry relative="1" as="geometry" />
        </mxCell>
        <mxCell id="m3b22_OhLMWhYGsPR_bi-11" value="&lt;h1 style=&quot;margin-top: 0px;&quot;&gt;Features&lt;/h1&gt;&lt;p&gt;As of now the &lt;strong&gt;laboratory results&lt;/strong&gt; such as &lt;strong&gt;Anti-dsDNA, ESR, CRP, C3, C4 levels&lt;br&gt;&lt;/strong&gt;and genetic biomarkers or cytokine sequences look promising, the datasets for which i am trying tp find on GEO,kaggle and dbGaP &lt;/p&gt;" style="text;html=1;whiteSpace=wrap;overflow=hidden;rounded=0;fillColor=#ffe6cc;strokeColor=#d79b00;" vertex="1" parent="1">
          <mxGeometry x="847" y="-418" width="253" height="176" as="geometry" />
        </mxCell>
      </root>
    </mxGraphModel>
  </diagram>
</mxfile>
